# xmcd
#
# Track frame offsets:
#	150
#	22129
#	37165
#	43713
#	61039
#	85294
#	107765
#	120875
#	145858
#	159915
#	179964
#	199374
#
# Disc length: 2807 seconds
#
# Revision: 1
# Processed by: cddbd v1.4PL0 Copyright (c) Steve Scherf et al.
# Submitted via: Gronk 1.4
#
DISCID=a80af50c
DTITLE=Bo Jenkins - Skin It Back
DYEAR=1900
DGENRE=blues
TTITLE0=Get Back To The Delta
TTITLE1=Train Train
TTITLE2=Joe
TTITLE3=50 Year Guarantee
TTITLE4=Who's To Blame
TTITLE5=Tequila Worm Blues
TTITLE6=Jump Back Baby
TTITLE7=Play Them Games
TTITLE8=Draggin' Cherry
TTITLE9=Whiskey Drinkin' Woman
TTITLE10=Midnight Special
TTITLE11=Misty's Sleeping
EXTD=
EXTT0=
EXTT1=
EXTT2=
EXTT3=
EXTT4=
EXTT5=
EXTT6=
EXTT7=
EXTT8=
EXTT9=
EXTT10=
EXTT11=
PLAYORDER=
